<svg width="1200" height="630" viewBox="0 0 1200 630" fill="none" xmlns="http://www.w3.org/2000/svg">
  <defs>
    <radialGradient id="g1" cx="0" cy="0" r="1" gradientUnits="userSpaceOnUse" gradientTransform="translate(280 180) rotate(34) scale(580 420)">
      <stop stop-color="#1BB7FF" stop-opacity="0.42"/>
      <stop offset="0.42" stop-color="#126CFF" stop-opacity="0.20"/>
      <stop offset="1" stop-color="#050615" stop-opacity="0"/>
    </radialGradient>
    <radialGradient id="g2" cx="0" cy="0" r="1" gradientUnits="userSpaceOnUse" gradientTransform="translate(950 485) rotate(157) scale(520 360)">
      <stop stop-color="#2563EB" stop-opacity="0.36"/>
      <stop offset="0.55" stop-color="#0EA5E9" stop-opacity="0.14"/>
      <stop offset="1" stop-color="#050615" stop-opacity="0"/>
    </radialGradient>
    <linearGradient id="coin" x1="320" y1="190" x2="455" y2="355" gradientUnits="userSpaceOnUse">
      <stop stop-color="#42D9FF"/>
      <stop offset="1" stop-color="#0F5BFF"/>
    </linearGradient>
    <linearGradient id="cash" x1="518" y1="248" x2="928" y2="342" gradientUnits="userSpaceOnUse">
      <stop stop-color="#FFFFFF"/>
      <stop offset="0.48" stop-color="#FFFFFF"/>
      <stop offset="0.49" stop-color="#3CCFFF"/>
      <stop offset="1" stop-color="#095DFF"/>
    </linearGradient>
    <filter id="soft" x="-20%" y="-20%" width="140%" height="140%">
      <feGaussianBlur stdDeviation="28"/>
    </filter>
  </defs>
  <rect width="1200" height="630" fill="#050615"/>
  <rect width="1200" height="630" fill="url(#g1)"/>
  <rect width="1200" height="630" fill="url(#g2)"/>
  <circle cx="382" cy="295" r="112" fill="#0B1530" filter="url(#soft)" opacity="0.8"/>
  <circle cx="382" cy="295" r="96" fill="url(#coin)"/>
  <circle cx="382" cy="268" r="38" fill="#050615"/>
  <path d="M356 332C352 348 364 362 381 362H421C438 362 450 348 446 332L427 260H375L356 332Z" fill="#050615"/>
  <text x="510" y="285" font-family="Inter, Arial, Helvetica, sans-serif" font-size="86" font-weight="800" letter-spacing="-3" fill="white">Privo</text>
  <text x="735" y="285" font-family="Inter, Arial, Helvetica, sans-serif" font-size="86" font-weight="800" letter-spacing="-3" fill="url(#cash)">Cash</text>
  <text x="512" y="360" font-family="Inter, Arial, Helvetica, sans-serif" font-size="42" font-weight="650" fill="#EEF6FF">Send SOL privately.</text>
  <text x="512" y="410" font-family="Inter, Arial, Helvetica, sans-serif" font-size="25" font-weight="500" fill="#8CA4C8">Private Solana payments from one simple interface.</text>
  <rect x="512" y="458" width="206" height="44" rx="22" fill="#2563EB" fill-opacity="0.22" stroke="#3B82F6" stroke-opacity="0.42"/>
  <circle cx="542" cy="480" r="5" fill="#14F195"/>
  <text x="558" y="489" font-family="Inter, Arial, Helvetica, sans-serif" font-size="18" font-weight="700" fill="#BBD7FF">Solana payments</text>
  <path d="M70 548C214 489 350 525 485 563C660 612 814 592 1134 500" stroke="#1D4ED8" stroke-opacity="0.20" stroke-width="2"/>
  <path d="M84 120C234 66 364 79 493 112C661 155 793 139 1104 78" stroke="#38BDF8" stroke-opacity="0.12" stroke-width="2"/>
</svg>
